<svg width="239" height="71" viewBox="0 0 239 71" fill="none" xmlns="http://www.w3.org/2000/svg">
<path d="M232.306 7.79785H238.371V70.7025H232.306V7.79785Z" fill="#F3EEE8"/>
<path d="M232.413 0.54248H238.371V4.01796H232.413V0.54248Z" fill="#F3EEE8"/>
<path d="M176.638 65.1169L172.815 70.8493H118.47V53.275V35.7008V18.1265V0.552246H124.769V69.3407H151.52C152.995 69.3407 174.559 69.2067 176.638 68.9385C178.783 68.6032 172.779 67.9946 174.791 67.3912C176.802 66.7207 164.004 67.5305 174.791 65.1169C161.479 65.1169 176.303 66.3908 176.638 65.1169Z" fill="#F3EEE8"/>
<path d="M82.8801 0.552246L99.1219 35.7008L115.364 70.8493H105.872L87.2671 30.1192C85.7921 30.3204 84.5853 31.0579 83.6466 32.3317C82.775 33.6056 82.0375 35.2147 81.4341 37.159C80.8307 39.1033 80.2943 41.2823 79.825 43.6959C79.4228 46.1095 78.9534 48.5567 78.4171 51.0374C77.8807 53.518 77.2103 55.9652 76.4057 58.3788C75.6682 60.7254 74.6625 62.8373 73.3887 64.7146C72.1148 66.5248 70.5057 67.9998 68.5614 69.1396C66.6171 70.2794 64.2035 70.8493 61.3205 70.8493C59.108 70.8493 57.1302 70.4805 55.387 69.743C53.7109 69.0055 52.2694 67.9998 51.0626 66.726C49.9228 65.3851 49.0177 63.843 48.3473 62.0999C47.7438 60.2896 47.4421 58.3453 47.4421 56.2669C47.4421 54.1885 47.8109 52.2442 48.5484 50.434C49.2859 48.5567 50.2916 46.8135 51.5654 45.2044C52.8393 43.5283 54.2808 41.9192 55.8899 40.3772C57.4989 38.7681 59.1751 37.1925 60.9183 35.6505C63.3319 33.505 65.712 31.2925 68.0586 29.013C70.4722 26.6664 72.383 24.1187 73.791 21.3698C75.2659 18.5539 76.0705 15.4698 76.2046 12.1176C76.4057 8.69825 75.5341 4.84315 73.5898 0.552246H82.8801ZM86.5631 28.8118L77.7131 9.40223C77.9142 11.6147 77.7801 13.7267 77.3108 15.738C76.9086 17.6823 76.2716 19.5261 75.4 21.2693C74.5285 23.0124 73.4557 24.6886 72.1819 26.2977C70.9751 27.8397 69.6677 29.3482 68.2597 30.8232C66.7177 32.4323 65.0415 34.1084 63.2313 35.8516C61.4881 37.5948 59.8455 39.405 58.3035 41.2823C56.7614 43.0925 55.4541 44.9698 54.3813 46.9141C53.3756 48.8584 52.8728 50.7692 52.8728 52.6465C52.8728 54.2555 53.0404 55.7641 53.3756 57.172C53.7109 58.58 54.2808 59.8203 55.0853 60.893C55.9569 61.9658 57.0631 62.8373 58.4041 63.5078C59.812 64.1112 61.5217 64.4129 63.533 64.4129C65.7455 64.4129 67.6898 63.776 69.366 62.5021C71.0421 61.2283 72.45 59.6862 73.5898 57.876C74.7296 55.9987 75.6682 53.9874 76.4057 51.8419C77.1432 49.6965 77.6796 47.7186 78.0148 45.9084C78.4171 43.83 78.8194 41.8186 79.2216 39.8743C79.6909 37.863 80.2273 36.0863 80.8307 34.5442C81.4341 33.0022 82.1716 31.7283 83.0432 30.7226C83.9818 29.717 85.1551 29.08 86.5631 28.8118Z" fill="#F3EEE8"/>
<path d="M194.233 0.552246L210.474 35.7008L226.716 70.8493H216.232L197.627 30.1192C196.152 30.3204 194.945 31.0579 194.006 32.3317C193.135 33.6056 192.397 35.2147 191.794 37.159C191.19 39.1033 190.654 41.2823 190.185 43.6959C189.782 46.1095 189.313 48.5567 188.777 51.0374C188.24 53.518 187.57 55.9652 186.765 58.3788C186.028 60.7254 185.022 62.8373 183.748 64.7146C182.474 66.5248 180.865 67.9998 178.921 69.1396C176.977 70.2794 174.563 70.8493 171.68 70.8493C169.468 70.8493 167.49 70.4805 165.747 69.743C164.07 69.0055 162.629 67.9998 161.422 66.726C160.282 65.3851 159.377 63.843 158.707 62.0999C158.103 60.2896 157.802 58.3453 157.802 56.2669C157.802 54.1885 158.171 52.2442 158.908 50.434C159.646 48.5567 160.651 46.8135 161.925 45.2044C163.199 43.5283 164.64 41.9192 166.249 40.3772C167.859 38.7681 169.535 37.1925 171.278 35.6505C173.691 33.505 176.072 31.2925 178.418 29.013C180.832 26.6664 182.743 24.1187 184.151 21.3698C185.626 18.5539 186.43 15.4698 186.564 12.1176C186.765 8.69825 185.894 4.84315 183.949 0.552246H194.233ZM196.923 28.8118L188.073 9.40223C188.274 11.6147 188.14 13.7267 187.67 15.738C187.268 17.6823 186.631 19.5261 185.76 21.2693C184.888 23.0124 183.815 24.6886 182.541 26.2977C181.335 27.8397 180.027 29.3482 178.619 30.8232C177.077 32.4323 175.401 34.1084 173.591 35.8516C171.848 37.5948 170.205 39.405 168.663 41.2823C167.121 43.0925 165.814 44.9698 164.741 46.9141C163.735 48.8584 163.232 50.7692 163.232 52.6465C163.232 54.2555 163.4 55.7641 163.735 57.172C164.07 58.58 164.64 59.8203 165.445 60.893C166.317 61.9658 167.423 62.8373 168.764 63.5078C170.172 64.1112 171.881 64.4129 173.893 64.4129C176.105 64.4129 178.049 63.776 179.726 62.5021C181.402 61.2283 182.81 59.6862 183.949 57.876C185.089 55.9987 186.028 53.9874 186.765 51.8419C187.503 49.6965 188.039 47.7186 188.374 45.9084C188.777 43.83 189.179 41.8186 189.581 39.8743C190.051 37.863 190.587 36.0863 191.19 34.5442C191.794 33.0022 192.531 31.7283 193.403 30.7226C194.341 29.717 195.515 29.08 196.923 28.8118Z" fill="#F3EEE8"/>
<path d="M41.7485 0.54248L23.8846 18.1681L36.8234 44.2996L49.9978 70.8495H40.4058L18.2809 24.1261L7.24377 34.9468V70.8495H0.549194V35.2045L0.549194 0.552558H7.24377V33.036L23.5407 16.7892L39.8377 0.54248H41.7485Z" fill="#F3EEE8"/>
</svg>
