<svg width="239" height="71" viewBox="0 0 239 71" fill="none" xmlns="http://www.w3.org/2000/svg">
<path d="M232.634 7.87308H238.7V70.7777H232.634V7.87308Z" fill="#171717"/>
<path d="M232.742 0.617584H238.699V4.09306H232.742V0.617584Z" fill="#171717"/>
<path d="M176.966 65.1919L173.143 70.9243H118.799V53.3501V35.7758V18.2015V0.627289H125.097V69.4158H151.848C153.323 69.4158 174.888 69.2817 176.966 69.0135C179.112 68.6783 173.108 68.0696 175.119 67.4662C177.13 66.7957 164.332 67.6056 175.119 65.1919C161.807 65.1919 176.631 66.4658 176.966 65.1919Z" fill="#171717"/>
<path d="M83.2085 0.627289L99.4502 35.7758L115.692 70.9243H106.201L87.5954 30.1943C86.1204 30.3954 84.9136 31.1329 83.975 32.4068C83.1034 33.6806 82.3659 35.2897 81.7625 37.234C81.1591 39.1783 80.6227 41.3573 80.1534 43.771C79.7511 46.1846 79.2818 48.6317 78.7454 51.1124C78.2091 53.5931 77.5386 56.0402 76.7341 58.4539C75.9966 60.8005 74.9909 62.9124 73.7171 64.7897C72.4432 66.5999 70.8341 68.0749 68.8898 69.2147C66.9455 70.3544 64.5318 70.9243 61.6489 70.9243C59.4364 70.9243 57.4586 70.5556 55.7154 69.8181C54.0392 69.0806 52.5978 68.0749 51.391 66.801C50.2512 65.4601 49.3461 63.9181 48.6756 62.1749C48.0722 60.3647 47.7705 58.4204 47.7705 56.3419C47.7705 54.2635 48.1393 52.3192 48.8768 50.509C49.6143 48.6317 50.6199 46.8886 51.8938 45.2795C53.1677 43.6033 54.6091 41.9943 56.2182 40.4522C57.8273 38.8431 59.5034 37.2676 61.2466 35.7255C63.6603 33.5801 66.0404 31.3676 68.3869 29.088C70.8006 26.7414 72.7114 24.1937 74.1193 21.4449C75.5943 18.629 76.3989 15.5449 76.533 12.1926C76.7341 8.7733 75.8625 4.91819 73.9182 0.627289H83.2085ZM86.8915 28.8869L78.0415 9.47728C78.2426 11.6898 78.1085 13.8017 77.6392 15.8131C77.2369 17.7574 76.6 19.6011 75.7284 21.3443C74.8568 23.0875 73.7841 24.7636 72.5102 26.3727C71.3034 27.9147 69.996 29.4233 68.5881 30.8983C67.046 32.5073 65.3699 34.1835 63.5597 35.9267C61.8165 37.6698 60.1739 39.4801 58.6319 41.3573C57.0898 43.1675 55.7824 45.0448 54.7097 46.9891C53.704 48.9334 53.2012 50.8442 53.2012 52.7215C53.2012 54.3306 53.3688 55.8391 53.704 57.2471C54.0392 58.655 54.6091 59.8953 55.4137 60.9681C56.2853 62.0408 57.3915 62.9124 58.7324 63.5828C60.1404 64.1863 61.85 64.488 63.8614 64.488C66.0739 64.488 68.0182 63.851 69.6943 62.5772C71.3705 61.3033 72.7784 59.7613 73.9182 57.951C75.058 56.0738 75.9966 54.0624 76.7341 51.917C77.4716 49.7715 78.008 47.7937 78.3432 45.9835C78.7454 43.905 79.1477 41.8937 79.55 39.9494C80.0193 37.938 80.5557 36.1613 81.1591 34.6193C81.7625 33.0772 82.5 31.8034 83.3716 30.7977C84.3102 29.792 85.4835 29.1551 86.8915 28.8869Z" fill="#171717"/>
<path d="M194.561 0.627289L210.803 35.7758L227.044 70.9243H216.56L197.955 30.1943C196.48 30.3954 195.273 31.1329 194.335 32.4068C193.463 33.6806 192.725 35.2897 192.122 37.234C191.519 39.1783 190.982 41.3573 190.513 43.771C190.111 46.1846 189.641 48.6317 189.105 51.1124C188.569 53.5931 187.898 56.0402 187.094 58.4539C186.356 60.8005 185.35 62.9124 184.077 64.7897C182.803 66.5999 181.194 68.0749 179.249 69.2147C177.305 70.3544 174.891 70.9243 172.008 70.9243C169.796 70.9243 167.818 70.5556 166.075 69.8181C164.399 69.0806 162.957 68.0749 161.75 66.801C160.611 65.4601 159.706 63.9181 159.035 62.1749C158.432 60.3647 158.13 58.4204 158.13 56.3419C158.13 54.2635 158.499 52.3192 159.236 50.509C159.974 48.6317 160.979 46.8886 162.253 45.2795C163.527 43.6033 164.969 41.9943 166.578 40.4522C168.187 38.8431 169.863 37.2676 171.606 35.7255C174.02 33.5801 176.4 31.3676 178.746 29.088C181.16 26.7414 183.071 24.1937 184.479 21.4449C185.954 18.629 186.758 15.5449 186.892 12.1926C187.094 8.7733 186.222 4.91819 184.278 0.627289H194.561ZM197.251 28.8869L188.401 9.47728C188.602 11.6898 188.468 13.8017 187.999 15.8131C187.596 17.7574 186.96 19.6011 186.088 21.3443C185.216 23.0875 184.144 24.7636 182.87 26.3727C181.663 27.9147 180.356 29.4233 178.948 30.8983C177.406 32.5073 175.729 34.1835 173.919 35.9267C172.176 37.6698 170.533 39.4801 168.991 41.3573C167.449 43.1675 166.142 45.0448 165.069 46.9891C164.064 48.9334 163.561 50.8442 163.561 52.7215C163.561 54.3306 163.728 55.8391 164.064 57.2471C164.399 58.655 164.969 59.8953 165.773 60.9681C166.645 62.0408 167.751 62.9124 169.092 63.5828C170.5 64.1863 172.21 64.488 174.221 64.488C176.433 64.488 178.378 63.851 180.054 62.5772C181.73 61.3033 183.138 59.7613 184.278 57.951C185.417 56.0738 186.356 54.0624 187.094 51.917C187.831 49.7715 188.367 47.7937 188.703 45.9835C189.105 43.905 189.507 41.8937 189.91 39.9494C190.379 37.938 190.915 36.1613 191.519 34.6193C192.122 33.0772 192.86 31.8034 193.731 30.7977C194.67 29.792 195.843 29.1551 197.251 28.8869Z" fill="#171717"/>
<path d="M42.0768 0.617645L24.2129 18.2433L37.1518 44.3747L50.3262 70.9247H40.7341L18.6092 24.2012L7.57208 35.0219V70.9247H0.877503V35.2797L0.877502 0.627723H7.57208V33.1111L23.8691 16.8644L40.166 0.617645H42.0768Z" fill="#171717"/>
</svg>
